<!--?xml version="1.0" encoding="utf-8"?-->
<!-- Generator: Adobe Illustrator 18.1.1, SVG Export Plug-In . SVG Version: 6.00 Build 0)  -->

<svg version="1.1" id="_x32_" xmlns="http://www.w3.org/2000/svg" xmlns:xlink="http://www.w3.org/1999/xlink" x="0px" y="0px" viewBox="0 0 512 512" style="width: 512px; height: 512px; opacity: 1;" xml:space="preserve">
<style type="text/css">
	.st0{fill:#4B4B4B;}
</style>
<g>
	<path class="st0" d="M256,85.549c23.636,0,42.779-19.158,42.779-42.77C298.778,19.142,279.636,0,256,0
		s-42.778,19.142-42.778,42.778C213.221,66.391,232.364,85.549,256,85.549z" style="fill: rgb(0, 0, 0);"></path>
	<path class="st0" d="M312.196,97.623H199.804c-20.725,0-43.274,22.549-43.274,43.282v143.768c0,10.364,8.396,18.767,18.758,18.767
		c10.363,0,18.775-8.403,18.775-18.767V166.468h8.651v320.88c0,13.617,11.035,24.651,24.644,24.651
		c13.625,0,24.66-11.034,24.66-24.651V301.138h7.964v186.211c0,13.617,11.034,24.651,24.66,24.651
		c13.609,0,24.643-11.034,24.643-24.651v-320.88h8.668v118.205c0,10.364,8.396,18.767,18.758,18.767
		c10.379,0,18.759-8.403,18.759-18.767V140.905C355.47,120.172,332.922,97.623,312.196,97.623z" style="fill: rgb(0, 0, 0);"></path>
</g>
</svg>
